<mxfile host="Electron" modified="2025-10-27T06:28:18.929Z" agent="Mozilla/5.0 (X11; Linux x86_64) AppleWebKit/537.36 (KHTML, like Gecko) draw.io/24.2.5 Chrome/120.0.6099.109 Electron/28.1.0 Safari/537.36" etag="dZUo8aIAxr7MiV2NuhdC" version="24.2.5" type="device">
  <diagram name="Page-1" id="lACFqoWDw0ZHzkJLoGcv">
    <mxGraphModel dx="1593" dy="799" grid="1" gridSize="10" guides="1" tooltips="1" connect="1" arrows="1" fold="1" page="1" pageScale="1" pageWidth="850" pageHeight="500" math="0" shadow="0">
      <root>
        <mxCell id="0" />
        <mxCell id="1" parent="0" />
        <mxCell id="9QArFEDkdCej6jaxWgxk-24" style="edgeStyle=orthogonalEdgeStyle;rounded=0;orthogonalLoop=1;jettySize=auto;html=1;exitX=1;exitY=0.5;exitDx=0;exitDy=0;entryX=0;entryY=0.5;entryDx=0;entryDy=0;" edge="1" parent="1" source="9QArFEDkdCej6jaxWgxk-1" target="9QArFEDkdCej6jaxWgxk-23">
          <mxGeometry relative="1" as="geometry">
            <mxPoint x="-540" y="170.0000000000001" as="targetPoint" />
          </mxGeometry>
        </mxCell>
        <mxCell id="9QArFEDkdCej6jaxWgxk-34" style="edgeStyle=orthogonalEdgeStyle;rounded=0;orthogonalLoop=1;jettySize=auto;html=1;entryX=0.5;entryY=0;entryDx=0;entryDy=0;" edge="1" parent="1" source="9QArFEDkdCej6jaxWgxk-1" target="9QArFEDkdCej6jaxWgxk-31">
          <mxGeometry relative="1" as="geometry" />
        </mxCell>
        <mxCell id="9QArFEDkdCej6jaxWgxk-1" value="Code&amp;nbsp;&lt;div&gt;Involved&lt;/div&gt;" style="rhombus;whiteSpace=wrap;html=1;" vertex="1" parent="1">
          <mxGeometry x="-678.5" y="140" width="79" height="80" as="geometry" />
        </mxCell>
        <mxCell id="9QArFEDkdCej6jaxWgxk-9" style="edgeStyle=orthogonalEdgeStyle;rounded=0;orthogonalLoop=1;jettySize=auto;html=1;exitX=0.5;exitY=1;exitDx=0;exitDy=0;entryX=0.5;entryY=0;entryDx=0;entryDy=0;" edge="1" parent="1" source="9QArFEDkdCej6jaxWgxk-2" target="9QArFEDkdCej6jaxWgxk-10">
          <mxGeometry relative="1" as="geometry">
            <mxPoint x="-640" y="70" as="targetPoint" />
          </mxGeometry>
        </mxCell>
        <mxCell id="9QArFEDkdCej6jaxWgxk-2" value="Project Start" style="rounded=0;whiteSpace=wrap;html=1;" vertex="1" parent="1">
          <mxGeometry x="-690" y="10" width="100" height="30" as="geometry" />
        </mxCell>
        <mxCell id="9QArFEDkdCej6jaxWgxk-7" value="" style="group" vertex="1" connectable="0" parent="1">
          <mxGeometry x="-680" y="70" width="260" height="80" as="geometry" />
        </mxCell>
        <mxCell id="9QArFEDkdCej6jaxWgxk-11" value="" style="group" vertex="1" connectable="0" parent="9QArFEDkdCej6jaxWgxk-7">
          <mxGeometry x="-4" y="-1" width="270" height="50" as="geometry" />
        </mxCell>
        <mxCell id="9QArFEDkdCej6jaxWgxk-4" value="Project folder to keep all data of a project in one place. People can be added on a needs basis" style="text;html=1;align=center;verticalAlign=middle;whiteSpace=wrap;rounded=0;" vertex="1" parent="9QArFEDkdCej6jaxWgxk-11">
          <mxGeometry x="90" width="180" height="50" as="geometry" />
        </mxCell>
        <mxCell id="9QArFEDkdCej6jaxWgxk-10" value="Teamwork" style="shape=process;whiteSpace=wrap;html=1;backgroundOutline=1;" vertex="1" parent="9QArFEDkdCej6jaxWgxk-11">
          <mxGeometry y="10" width="90" height="27" as="geometry" />
        </mxCell>
        <mxCell id="9QArFEDkdCej6jaxWgxk-8" value="" style="endArrow=classic;html=1;rounded=0;exitX=0.5;exitY=1;exitDx=0;exitDy=0;" edge="1" parent="1" source="9QArFEDkdCej6jaxWgxk-10" target="9QArFEDkdCej6jaxWgxk-1">
          <mxGeometry width="50" height="50" relative="1" as="geometry">
            <mxPoint x="-640" y="150" as="sourcePoint" />
            <mxPoint x="-580" y="350" as="targetPoint" />
          </mxGeometry>
        </mxCell>
        <mxCell id="9QArFEDkdCej6jaxWgxk-16" value="Yes" style="text;html=1;align=center;verticalAlign=middle;whiteSpace=wrap;rounded=0;" vertex="1" parent="1">
          <mxGeometry x="-599.5" y="180" width="60" height="30" as="geometry" />
        </mxCell>
        <mxCell id="9QArFEDkdCej6jaxWgxk-27" style="edgeStyle=orthogonalEdgeStyle;rounded=0;orthogonalLoop=1;jettySize=auto;html=1;entryX=0;entryY=0.5;entryDx=0;entryDy=0;" edge="1" parent="1" source="9QArFEDkdCej6jaxWgxk-18" target="9QArFEDkdCej6jaxWgxk-13">
          <mxGeometry relative="1" as="geometry" />
        </mxCell>
        <mxCell id="9QArFEDkdCej6jaxWgxk-33" style="edgeStyle=orthogonalEdgeStyle;rounded=0;orthogonalLoop=1;jettySize=auto;html=1;entryX=1;entryY=0;entryDx=0;entryDy=0;" edge="1" parent="1" source="9QArFEDkdCej6jaxWgxk-18" target="9QArFEDkdCej6jaxWgxk-31">
          <mxGeometry relative="1" as="geometry" />
        </mxCell>
        <mxCell id="9QArFEDkdCej6jaxWgxk-18" value="HPC&amp;nbsp;&lt;div&gt;needed&lt;/div&gt;" style="rhombus;whiteSpace=wrap;html=1;" vertex="1" parent="1">
          <mxGeometry x="-515" y="240" width="80" height="80" as="geometry" />
        </mxCell>
        <mxCell id="9QArFEDkdCej6jaxWgxk-20" value="" style="group" vertex="1" connectable="0" parent="1">
          <mxGeometry x="-370" y="260" width="300" height="40" as="geometry" />
        </mxCell>
        <mxCell id="9QArFEDkdCej6jaxWgxk-13" value="Triton project folder" style="shape=process;whiteSpace=wrap;html=1;backgroundOutline=1;" vertex="1" parent="9QArFEDkdCej6jaxWgxk-20">
          <mxGeometry width="100" height="40" as="geometry" />
        </mxCell>
        <mxCell id="9QArFEDkdCej6jaxWgxk-15" value="Access based on Domain groups. NOT BACKED UP! For compute/recoverable data&lt;div&gt;Unrecoverable data needs to be backed up elsewhere&lt;/div&gt;" style="text;html=1;align=center;verticalAlign=middle;whiteSpace=wrap;rounded=0;" vertex="1" parent="9QArFEDkdCej6jaxWgxk-20">
          <mxGeometry x="110" width="190" height="30" as="geometry" />
        </mxCell>
        <mxCell id="9QArFEDkdCej6jaxWgxk-26" style="edgeStyle=orthogonalEdgeStyle;rounded=0;orthogonalLoop=1;jettySize=auto;html=1;entryX=0.5;entryY=0;entryDx=0;entryDy=0;" edge="1" parent="1" source="9QArFEDkdCej6jaxWgxk-23" target="9QArFEDkdCej6jaxWgxk-18">
          <mxGeometry relative="1" as="geometry" />
        </mxCell>
        <mxCell id="9QArFEDkdCej6jaxWgxk-23" value="Version repository" style="shape=process;whiteSpace=wrap;html=1;backgroundOutline=1;" vertex="1" parent="1">
          <mxGeometry x="-530" y="165" width="110" height="30" as="geometry" />
        </mxCell>
        <mxCell id="9QArFEDkdCej6jaxWgxk-25" value="&lt;b&gt;version.aalto.fi,&lt;/b&gt; repositry can be private, internal or public (e.g. upon publication)" style="text;html=1;align=center;verticalAlign=middle;whiteSpace=wrap;rounded=0;" vertex="1" parent="1">
          <mxGeometry x="-410" y="160" width="160" height="30" as="geometry" />
        </mxCell>
        <mxCell id="9QArFEDkdCej6jaxWgxk-29" value="Yes" style="text;html=1;align=center;verticalAlign=middle;whiteSpace=wrap;rounded=0;" vertex="1" parent="1">
          <mxGeometry x="-440" y="280" width="60" height="30" as="geometry" />
        </mxCell>
        <mxCell id="9QArFEDkdCej6jaxWgxk-31" value="Data storage set up" style="ellipse;whiteSpace=wrap;html=1;" vertex="1" parent="1">
          <mxGeometry x="-684" y="380" width="90" height="50" as="geometry" />
        </mxCell>
        <mxCell id="9QArFEDkdCej6jaxWgxk-35" style="edgeStyle=orthogonalEdgeStyle;rounded=0;orthogonalLoop=1;jettySize=auto;html=1;entryX=1;entryY=0.5;entryDx=0;entryDy=0;" edge="1" parent="1" source="9QArFEDkdCej6jaxWgxk-13" target="9QArFEDkdCej6jaxWgxk-31">
          <mxGeometry relative="1" as="geometry">
            <Array as="points">
              <mxPoint x="-320" y="405" />
            </Array>
          </mxGeometry>
        </mxCell>
        <mxCell id="9QArFEDkdCej6jaxWgxk-36" value="No" style="text;html=1;align=center;verticalAlign=middle;whiteSpace=wrap;rounded=0;" vertex="1" parent="1">
          <mxGeometry x="-575" y="280" width="60" height="30" as="geometry" />
        </mxCell>
        <mxCell id="9QArFEDkdCej6jaxWgxk-37" value="No" style="text;html=1;align=center;verticalAlign=middle;whiteSpace=wrap;rounded=0;" vertex="1" parent="1">
          <mxGeometry x="-700" y="220" width="60" height="30" as="geometry" />
        </mxCell>
      </root>
    </mxGraphModel>
  </diagram>
</mxfile>
